<svg xmlns="http://www.w3.org/2000/svg" viewBox="0 0 64 80" x="0px" y="0px"><path d="M44,44H38.92l-.31-3.67A13.986,13.986,0,0,0,46,28V27h1a3.009,3.009,0,0,0,3-3V21a3.009,3.009,0,0,0-3-3H46V16a14,14,0,0,0-28,0v2H17a3.009,3.009,0,0,0-3,3v3a3.009,3.009,0,0,0,3,3h1v1a13.986,13.986,0,0,0,7.39,12.33L25.08,44H20a9.014,9.014,0,0,0-9,9v8a1,1,0,0,0,1,1H52a1,1,0,0,0,1-1V53A9.014,9.014,0,0,0,44,44Zm2-24h1a1,1,0,0,1,1,1v3a1,1,0,0,1-1,1H46ZM18,25H17a1,1,0,0,1-1-1V21a1,1,0,0,1,1-1h1ZM39.72,46l-1.31,5.25L35.5,48.92,38.41,46ZM32,49.59l-4.96-4.97.28-3.44a13.765,13.765,0,0,0,9.36,0l.28,3.44ZM20,28V16a12,12,0,0,1,24,0V28a12,12,0,0,1-24,0Zm5.59,18,2.91,2.92-2.91,2.33L24.28,46ZM51,60H13V53a7.008,7.008,0,0,1,7-7h2.22l1.81,7.24a1.01,1.01,0,0,0,.65.71A1.127,1.127,0,0,0,25,54a1.02,1.02,0,0,0,.62-.22l4.31-3.44L31,51.41V57h2V51.41l1.07-1.07,4.31,3.44A1.02,1.02,0,0,0,39,54a1.127,1.127,0,0,0,.32-.05,1.01,1.01,0,0,0,.65-.71L41.78,46H44a7.008,7.008,0,0,1,7,7Z"/><path d="M27,21a1,1,0,0,0-1,1v2a1,1,0,0,0,2,0V22A1,1,0,0,0,27,21Z"/><path d="M37,25a1,1,0,0,0,1-1V22a1,1,0,0,0-2,0v2A1,1,0,0,0,37,25Z"/><text x="0" y="79" fill="#000000" font-size="5px" font-weight="bold" font-family="'Helvetica Neue', Helvetica, Arial-Unicode, Arial, Sans-serif">Created by ic2icon</text><text x="0" y="84" fill="#000000" font-size="5px" font-weight="bold" font-family="'Helvetica Neue', Helvetica, Arial-Unicode, Arial, Sans-serif">from the Noun Project</text></svg>